HIERARCHY
ROOT hip
{
  OFFSET 0 0 0
  CHANNELS 6 Xposition Yposition Zposition Zrotation Yrotation Xrotation
  JOINT abdomen
  {
    OFFSET 0 20.6881 -0.73152
    CHANNELS 3 Zrotation Xrotation Yrotation
    JOINT chest
    {
      OFFSET 0 11.7043 -0.48768
      CHANNELS 3 Zrotation Xrotation Yrotation
      JOINT neck
      {
        OFFSET 0 22.1894 -2.19456
        CHANNELS 3 Zrotation Xrotation Yrotation
        JOINT head
        {
          OFFSET -0.24384 7.07133 1.2192
          CHANNELS 3 Zrotation Xrotation Yrotation
          JOINT leftEye
          {
            OFFSET 4.14528 8.04674 8.04672
            CHANNELS 3 Zrotation Xrotation Yrotation
            End Site
            {
              OFFSET 1 0 0
            }
          }
          JOINT rightEye
          {
            OFFSET -3.6576 8.04674 8.04672
            CHANNELS 3 Zrotation Xrotation Yrotation
            End Site
            {
              OFFSET 1 0 0
            }
          }
        }
      }
      JOINT rCollar
      {
        OFFSET -2.68224 19.2634 -4.8768
        CHANNELS 3 Zrotation Xrotation Yrotation
        JOINT rShldr
        {
          OFFSET -8.77824 -1.95073 1.46304
          CHANNELS 3 Zrotation Xrotation Yrotation
          JOINT rForeArm
          {
            OFFSET -28.1742 -1.7115 0.48768
            CHANNELS 3 Zrotation Xrotation Yrotation
            JOINT rHand
            {
              OFFSET -22.5879 0.773209 7.07136
              CHANNELS 3 Zrotation Xrotation Yrotation
              JOINT rThumb1
              {
                OFFSET -1.2192 -0.487915 3.41376
                CHANNELS 3 Zrotation Xrotation Yrotation
                JOINT rThumb2
                {
                  OFFSET -3.37035 -0.52449 3.41376
                  CHANNELS 3 Zrotation Xrotation Yrotation
                  End Site
                  {
                    OFFSET -1.78271 -1.18214 1.43049
                  }
                }
              }
              JOINT rIndex1
              {
                OFFSET -7.75947 0.938293 5.60832
                CHANNELS 3 Zrotation Xrotation Yrotation
                JOINT rIndex2
                {
                  OFFSET -2.54057 -0.884171 1.56538
                  CHANNELS 3 Zrotation Xrotation Yrotation
                  End Site
                  {
                    OFFSET -1.62519 -0.234802 1.16502
                  }
                }
              }
              JOINT rMid1
              {
                OFFSET -8.24714 1.18213 3.41376
                CHANNELS 3 Zrotation Xrotation Yrotation
                JOINT rMid2
                {
                  OFFSET -3.10165 -0.590103 1.0647
                  CHANNELS 3 Zrotation Xrotation Yrotation
                  End Site
                  {
                    OFFSET -2.48547 -0.328903 0.83742
                  }
                }
              }
              JOINT rRing1
              {
                OFFSET -8.82822 0.546677 1.51678
                CHANNELS 3 Zrotation Xrotation Yrotation
                JOINT rRing2
                {
                  OFFSET -2.60934 -0.819778 -0.0198488
                  CHANNELS 3 Zrotation Xrotation Yrotation
                  End Site
                  {
                    OFFSET -2.33842 -0.294052 0.168128
                  }
                }
              }
              JOINT rPinky1
              {
                OFFSET -8.27202 -0.0477905 -0.4584
                CHANNELS 3 Zrotation Xrotation Yrotation
                JOINT rPinky2
                {
                  OFFSET -1.82734 -0.647385 -0.700984
                  CHANNELS 3 Zrotation Xrotation Yrotation
                  End Site
                  {
                    OFFSET -1.69225 -0.51767 -0.607171
                  }
                }
              }
            }
          }
        }
      }
      JOINT lCollar
      {
        OFFSET 2.68224 19.2634 -4.8768
        CHANNELS 3 Zrotation Xrotation Yrotation
        JOINT lShldr
        {
          OFFSET 8.77824 -1.95073 1.46304
          CHANNELS 3 Zrotation Xrotation Yrotation
          JOINT lForeArm
          {
            OFFSET 28.1742 -1.7115 0.48768
            CHANNELS 3 Zrotation Xrotation Yrotation
            JOINT lHand
            {
              OFFSET 22.5879 0.773209 7.07136
              CHANNELS 3 Zrotation Xrotation Yrotation
              JOINT lThumb1
              {
                OFFSET 1.2192 -0.487915 3.41376
                CHANNELS 3 Zrotation Xrotation Yrotation
                JOINT lThumb2
                {
                  OFFSET 3.37035 -0.52449 3.41376
                  CHANNELS 3 Zrotation Xrotation Yrotation
                  End Site
                  {
                    OFFSET 1.78271 -1.18214 1.43049
                  }
                }
              }
              JOINT lIndex1
              {
                OFFSET 7.75947 0.938293 5.60832
                CHANNELS 3 Zrotation Xrotation Yrotation
                JOINT lIndex2
                {
                  OFFSET 2.54057 -0.884171 1.56538
                  CHANNELS 3 Zrotation Xrotation Yrotation
                  End Site
                  {
                    OFFSET 1.62519 -0.234802 1.16502
                  }
                }
              }
              JOINT lMid1
              {
                OFFSET 8.24714 1.18213 3.41376
                CHANNELS 3 Zrotation Xrotation Yrotation
                JOINT lMid2
                {
                  OFFSET 3.10165 -0.590103 1.0647
                  CHANNELS 3 Zrotation Xrotation Yrotation
                  End Site
                  {
                    OFFSET 2.48547 -0.328903 0.83742
                  }
                }
              }
              JOINT lRing1
              {
                OFFSET 8.82822 0.546677 1.51678
                CHANNELS 3 Zrotation Xrotation Yrotation
                JOINT lRing2
                {
                  OFFSET 2.60934 -0.819778 -0.0198488
                  CHANNELS 3 Zrotation Xrotation Yrotation
                  End Site
                  {
                    OFFSET 2.33842 -0.294052 0.168128
                  }
                }
              }
              JOINT lPinky1
              {
                OFFSET 8.27202 -0.0477905 -0.4584
                CHANNELS 3 Zrotation Xrotation Yrotation
                JOINT lPinky2
                {
                  OFFSET 1.82734 -0.647385 -0.700984
                  CHANNELS 3 Zrotation Xrotation Yrotation
                  End Site
                  {
                    OFFSET 1.69225 -0.51767 -0.607171
                  }
                }
              }
            }
          }
        }
      }
    }
  }
  JOINT rButtock
  {
    OFFSET -8.77824 4.35084 1.2192
    CHANNELS 3 Zrotation Xrotation Yrotation
    JOINT rThigh
    {
      OFFSET 0 -1.70687 -2.19456
      CHANNELS 3 Zrotation Xrotation Yrotation
      JOINT rShin
      {
        OFFSET 0 -36.8199 0.73152
        CHANNELS 3 Zrotation Xrotation Yrotation
        JOINT rFoot
        {
          OFFSET 0.73152 -45.1104 -5.12064
          CHANNELS 3 Zrotation Xrotation Yrotation
          End Site
          {
            OFFSET -1.1221 -3.69964 12.103
          }
        }
      }
    }
  }
  JOINT lButtock
  {
    OFFSET 8.77824 4.35084 1.2192
    CHANNELS 3 Zrotation Xrotation Yrotation
    JOINT lThigh
    {
      OFFSET 0 -1.70687 -2.19456
      CHANNELS 3 Zrotation Xrotation Yrotation
      JOINT lShin
      {
        OFFSET 0 -36.8199 0.73152
        CHANNELS 3 Zrotation Xrotation Yrotation
        JOINT lFoot
        {
          OFFSET -0.73152 -45.1104 -5.12064
          CHANNELS 3 Zrotation Xrotation Yrotation
          End Site
          {
            OFFSET 1.1221 -3.69964 12.103
          }
        }
      }
    }
  }
}
MOTION
Frames:	4
Frame Time:	0.03333
0.0 0.0 0.0 0.0 0.0 0.0 0.0 0.0 0.0 0.0 0.0 0.0 0.0 0.0 0.0 0.0 0.0 0.0 0.0 0.0 0.0 0.0 0.0 0.0 0.0 0.0 0.0 0.0 0.0 0.0 0.0 0.0 0.0 0.0 0.0 0.0 0.0 0.0 0.0 0.0 0.0 0.0 0.0 0.0 0.0 0.0 0.0 0.0 0.0 0.0 0.0 0.0 0.0 0.0 0.0 0.0 0.0 0.0 0.0 0.0 0.0 0.0 0.0 0.0 0.0 0.0 0.0 0.0 0.0 0.0 0.0 0.0 0.0 0.0 0.0 0.0 0.0 0.0 0.0 0.0 0.0 0.0 0.0 0.0 0.0 0.0 0.0 0.0 0.0 0.0 0.0 0.0 0.0 0.0 0.0 0.0 0.0 0.0 0.0 0.0 0.0 0.0 0.0 0.0 0.0 0.0 0.0 0.0 0.0 0.0 0.0 0.0 0.0 0.0 0.0 0.0 0.0 0.0 0.0 0.0 0.0 0.0 0.0 0.0 0.0 0.0 0.0 0.0 0.0 0.0 0.0 0.0
0.0585 61.891 0.0683 179.869198 26.587349 179.402296 -0.129528 3.531151 -0.0 0.495889 8.165081 -1.11572 2.949447 -0.77187 167.11093 1.595779 55.57691 176.843436 -95.271784 -5.954625 -6.528168 66.842111 9.705506 14.662137 62.958228 32.883677 14.364347 20.332208 -43.565904 9.046686 -3.082879 4.303701 154.098268 -6.257737 17.031898 -63.410813 167.197702 0.084444 48.30266 -144.005521 61.662356 -72.021658 30.51378 -38.773819 -123.645137 9.972113 -52.997894 120.272864 18.200692 -10.422677 -116.345247 -165.777857 -1.525514 94.93252 -162.274074 28.136148 -103.159535 -4.52587 27.427198 23.406543 -4.410129 12.42006 -74.310358 -15.36044 -44.843102 -18.552393 80.648452 11.012769 -155.880642 -175.197174 -59.058742 -163.256768 5.112002 -51.369036 -149.544402 -33.690864 -42.963817 11.720072 -90.080765 -43.458562 -54.443927 -140.675905 -73.400218 -83.328362 175.08417 -3.433247 -109.713778 170.542036 -35.386021 -124.222776 -164.601007 -43.765415 -172.88576 3.816739 -18.450523 75.501405 -1.318112 10.414075 122.406956 136.881644 76.065556 -161.73839 7.494056 12.373861 104.358909 12.220612 -41.721927 10.920091 -40.628286 -33.941202 -53.855323 2.813148 50.814308 -0.0 5.774631 3.225005 118.086335 -77.331497 19.526385 97.844659 0.623948 -47.075991 0.763325 -0.622172 47.104043 -0.0 3.24879 7.372488 145.873661 -53.98329 -53.620125 123.115329
-0.25110000000000005 58.0411 0.7434 -34.0129 -65.245071 34.819434 9.130707 11.635454 43.338969 -6.546892 -6.224737 -38.842371 6.753217 22.489818 89.551281 -31.8645 -1.009435 -63.304515 4.23065 0.407144 10.989152 -4.725328 0.299035 -7.238009 -84.511826 67.351681 88.904365 -150.024264 -29.797036 120.389278 -0.172578 -66.289967 -145.791511 -163.279692 18.713814 139.760727 0.12877 7.905409 -10.999411 -133.03851 -14.691071 87.518711 -84.189931 44.517439 51.26051 -170.00207 -29.482418 98.68744 -157.723314 13.702002 126.582564 -7.708985 4.54404 21.159145 -135.675359 -18.999101 -160.203045 -159.848505 56.770197 -165.948551 118.440267 39.160474 -74.059531 135.030179 53.896237 -138.058225 3.646129 11.095628 1.934842 -78.974096 -34.839658 -71.075328 -79.668487 -25.718006 -60.178889 166.642549 54.455086 -142.980295 -81.738885 -48.650545 -33.939221 140.943386 -36.717863 -137.322928 -30.084986 -48.833513 12.197391 -100.651282 -33.323969 -41.142099 9.083744 13.796406 -4.484401 7.57165 1.972229 -11.358269 165.008998 -64.748244 179.499289 87.970883 85.312896 -84.750309 5.551786 -20.547251 6.622291 156.556963 1.416442 167.058888 0.161657 4.351942 -2.129374 -16.359832 -12.759028 45.608928 59.751427 21.879306 51.467013 82.90101 50.69798 175.045636 -61.448161 34.552761 -57.829101 148.530468 6.904731 -0.0 -76.998363 52.875883 174.618054 -5.072695 6.889913 -95.025509
-0.35309999999999997 52.4865 0.7552 -27.22052 -63.568421 30.00248 4.000767 9.969219 -0.529266 5.736279 -7.481411 -2.788391 -8.464215 34.024976 -150.794516 10.290854 44.554664 -168.475633 25.449282 0.751292 3.326187 4.551094 -0.583673 -14.608985 139.870157 -70.373699 117.792978 140.946302 -29.155524 -154.444051 -121.020583 -13.340321 6.989217 174.769699 -57.184514 154.078404 -173.813645 3.587615 99.535403 159.611485 -74.58383 127.906455 -64.633109 39.43855 26.919449 -159.135524 -16.591747 87.663375 -6.636073 11.750824 -25.998307 23.089112 -5.885878 24.307868 3.645364 -28.227633 -0.7403 -140.098483 -57.9176 -151.937687 -111.680683 55.379018 -163.470321 -78.361206 -19.297646 -128.164113 -6.390362 63.223649 0.065653 32.205378 -41.204482 -25.137183 28.610629 29.733278 27.592162 -56.982687 -60.482942 -56.506447 95.795996 52.790097 -59.061451 22.787009 -41.277307 -46.285166 82.623426 44.133753 -80.10238 -90.028456 -63.174641 -34.438897 162.141684 -0.17254 -150.633793 130.191755 -78.207566 157.58901 66.423449 -64.59755 96.633145 -46.183887 -14.323864 -54.037187 -114.608271 77.553776 72.308205 -90.230175 76.654863 72.725513 -1.59819 -12.421538 1.663763 -17.940891 7.26847 90.674934 59.653144 -8.047883 96.43107 -88.791142 52.50612 -163.941484 124.221228 70.118133 34.368699 -126.64643 -16.783213 180.0 -54.978064 -66.15656 176.592015 -131.019494 5.177609 44.419766
